<svg xmlns="http://www.w3.org/2000/svg" xmlns:xlink="http://www.w3.org/1999/xlink" width="320" zoomAndPan="magnify" viewBox="0 0 240 66" height="88" preserveAspectRatio="xMidYMid meet" version="1.2"><defs><clipPath id="36585093fa"><path d="M 0 17.757812 L 39 17.757812 L 39 56.757812 L 0 56.757812 Z M 0 17.757812 "/></clipPath></defs><g id="a292c08d68"><g clip-rule="nonzero" clip-path="url(#36585093fa)"><path style=" stroke:none;fill-rule:nonzero;fill:#823bf8;fill-opacity:1;" d="M 4.84375 17.757812 L 33.910156 17.757812 C 34.226562 17.757812 34.542969 17.785156 34.855469 17.847656 C 35.167969 17.910156 35.46875 18.003906 35.761719 18.125 C 36.058594 18.246094 36.335938 18.394531 36.601562 18.574219 C 36.867188 18.75 37.109375 18.949219 37.335938 19.175781 C 37.558594 19.398438 37.761719 19.644531 37.9375 19.910156 C 38.113281 20.171875 38.261719 20.453125 38.386719 20.746094 C 38.507812 21.039062 38.597656 21.34375 38.660156 21.65625 C 38.722656 21.96875 38.753906 22.28125 38.753906 22.601562 L 38.753906 51.664062 C 38.753906 51.984375 38.722656 52.296875 38.660156 52.609375 C 38.597656 52.921875 38.507812 53.226562 38.386719 53.519531 C 38.261719 53.8125 38.113281 54.09375 37.9375 54.355469 C 37.761719 54.621094 37.558594 54.867188 37.335938 55.089844 C 37.109375 55.316406 36.867188 55.515625 36.601562 55.695312 C 36.335938 55.871094 36.058594 56.019531 35.761719 56.140625 C 35.46875 56.261719 35.167969 56.355469 34.855469 56.417969 C 34.542969 56.480469 34.226562 56.511719 33.910156 56.511719 L 4.84375 56.511719 C 4.527344 56.511719 4.210938 56.480469 3.898438 56.417969 C 3.585938 56.355469 3.285156 56.261719 2.992188 56.140625 C 2.695312 56.019531 2.417969 55.871094 2.152344 55.695312 C 1.886719 55.515625 1.644531 55.316406 1.417969 55.089844 C 1.195312 54.867188 0.992188 54.621094 0.816406 54.355469 C 0.640625 54.09375 0.492188 53.8125 0.367188 53.519531 C 0.246094 53.226562 0.15625 52.921875 0.09375 52.609375 C 0.03125 52.296875 0 51.984375 0 51.664062 L 0 22.601562 C 0 22.28125 0.03125 21.96875 0.09375 21.65625 C 0.15625 21.34375 0.246094 21.039062 0.367188 20.746094 C 0.492188 20.453125 0.640625 20.171875 0.816406 19.910156 C 0.992188 19.644531 1.195312 19.398438 1.417969 19.175781 C 1.644531 18.949219 1.886719 18.75 2.152344 18.574219 C 2.417969 18.394531 2.695312 18.246094 2.992188 18.125 C 3.285156 18.003906 3.585938 17.910156 3.898438 17.847656 C 4.210938 17.785156 4.527344 17.757812 4.84375 17.757812 Z M 4.84375 17.757812 "/></g><path style="fill:none;stroke-width:6;stroke-linecap:square;stroke-linejoin:miter;stroke:#ffffff;stroke-opacity:1;stroke-miterlimit:4;" d="M 19.997985 32.000607 L 19.997985 47.998995 L 35.996373 47.998995 L 35.996373 32.000607 M 60.002019 32.000607 L 45.00353 32.000607 L 45.00353 47.998995 " transform="matrix(0.484424,0,0,0.484424,-0.000000000000010658,17.755957)"/><g style="fill:#ffffff;fill-opacity:1;"><g transform="translate(46.125507, 48.519997)"><path style="stroke:none" d="M 14.078125 -19.875 C 14.078125 -20.332031 14.304688 -20.5625 14.765625 -20.5625 L 19.046875 -20.5625 C 19.492188 -20.5625 19.71875 -20.332031 19.71875 -19.875 L 19.71875 -0.6875 C 19.71875 -0.226562 19.492188 0 19.046875 0 L 14.765625 0 C 14.304688 0 14.078125 -0.226562 14.078125 -0.6875 L 14.078125 -1.765625 C 14.078125 -1.867188 14.039062 -1.925781 13.96875 -1.9375 C 13.90625 -1.945312 13.847656 -1.914062 13.796875 -1.84375 C 12.753906 -0.425781 11.113281 0.28125 8.875 0.28125 C 6.851562 0.28125 5.1875 -0.332031 3.875 -1.5625 C 2.570312 -2.789062 1.921875 -4.507812 1.921875 -6.71875 L 1.921875 -19.875 C 1.921875 -20.332031 2.144531 -20.5625 2.59375 -20.5625 L 6.84375 -20.5625 C 7.289062 -20.5625 7.515625 -20.332031 7.515625 -19.875 L 7.515625 -8.125 C 7.515625 -7.050781 7.800781 -6.179688 8.375 -5.515625 C 8.945312 -4.847656 9.742188 -4.515625 10.765625 -4.515625 C 11.671875 -4.515625 12.414062 -4.785156 13 -5.328125 C 13.582031 -5.878906 13.941406 -6.597656 14.078125 -7.484375 Z M 14.078125 -19.875 "/></g></g><g style="fill:#ffffff;fill-opacity:1;"><g transform="translate(67.923342, 48.519997)"><path style="stroke:none" d="M 12.796875 -20.875 C 14.929688 -20.875 16.648438 -20.21875 17.953125 -18.90625 C 19.265625 -17.601562 19.921875 -15.832031 19.921875 -13.59375 L 19.921875 -0.6875 C 19.921875 -0.226562 19.691406 0 19.234375 0 L 14.953125 0 C 14.503906 0 14.28125 -0.226562 14.28125 -0.6875 L 14.28125 -12.4375 C 14.28125 -13.507812 13.984375 -14.378906 13.390625 -15.046875 C 12.804688 -15.710938 12.023438 -16.046875 11.046875 -16.046875 C 10.054688 -16.046875 9.253906 -15.710938 8.640625 -15.046875 C 8.023438 -14.378906 7.71875 -13.507812 7.71875 -12.4375 L 7.71875 -0.6875 C 7.71875 -0.226562 7.492188 0 7.046875 0 L 2.765625 0 C 2.304688 0 2.078125 -0.226562 2.078125 -0.6875 L 2.078125 -19.875 C 2.078125 -20.332031 2.304688 -20.5625 2.765625 -20.5625 L 7.046875 -20.5625 C 7.492188 -20.5625 7.71875 -20.332031 7.71875 -19.875 L 7.71875 -18.765625 C 7.71875 -18.648438 7.742188 -18.578125 7.796875 -18.546875 C 7.847656 -18.523438 7.898438 -18.554688 7.953125 -18.640625 C 9.046875 -20.128906 10.660156 -20.875 12.796875 -20.875 Z M 12.796875 -20.875 "/></g></g><g style="fill:#823bf8;fill-opacity:1;"><g transform="translate(89.801286, 48.519997)"><path style="stroke:none" d="M 12.3125 -20.84375 C 13.164062 -20.84375 13.875 -20.679688 14.4375 -20.359375 C 14.757812 -20.203125 14.878906 -19.921875 14.796875 -19.515625 L 14.046875 -15.3125 C 14.015625 -15.070312 13.9375 -14.925781 13.8125 -14.875 C 13.695312 -14.820312 13.503906 -14.820312 13.234375 -14.875 C 12.804688 -14.988281 12.421875 -15.046875 12.078125 -15.046875 C 11.890625 -15.046875 11.582031 -15.015625 11.15625 -14.953125 C 10.195312 -14.878906 9.382812 -14.523438 8.71875 -13.890625 C 8.050781 -13.265625 7.71875 -12.4375 7.71875 -11.40625 L 7.71875 -0.6875 C 7.71875 -0.226562 7.492188 0 7.046875 0 L 2.765625 0 C 2.304688 0 2.078125 -0.226562 2.078125 -0.6875 L 2.078125 -19.875 C 2.078125 -20.332031 2.304688 -20.5625 2.765625 -20.5625 L 7.046875 -20.5625 C 7.492188 -20.5625 7.71875 -20.332031 7.71875 -19.875 L 7.71875 -18.640625 C 7.71875 -18.535156 7.742188 -18.46875 7.796875 -18.4375 C 7.847656 -18.414062 7.914062 -18.441406 8 -18.515625 C 9.0625 -20.066406 10.5 -20.84375 12.3125 -20.84375 Z M 12.3125 -20.84375 "/></g></g><g style="fill:#823bf8;fill-opacity:1;"><g transform="translate(104.599801, 48.519997)"><path style="stroke:none" d="M 12 -4.4375 C 13.757812 -4.519531 15.109375 -5.132812 16.046875 -6.28125 C 16.203125 -6.46875 16.375 -6.5625 16.5625 -6.5625 C 16.71875 -6.5625 16.863281 -6.492188 17 -6.359375 L 19.28125 -4.15625 C 19.4375 -4 19.515625 -3.84375 19.515625 -3.6875 C 19.515625 -3.5 19.460938 -3.335938 19.359375 -3.203125 C 18.484375 -2.109375 17.359375 -1.25 15.984375 -0.625 C 14.609375 0 13.109375 0.3125 11.484375 0.3125 C 9.023438 0.3125 6.988281 -0.3125 5.375 -1.5625 C 3.757812 -2.8125 2.675781 -4.53125 2.125 -6.71875 C 1.800781 -7.894531 1.640625 -9.132812 1.640625 -10.4375 C 1.640625 -11.988281 1.785156 -13.296875 2.078125 -14.359375 C 2.609375 -16.328125 3.679688 -17.910156 5.296875 -19.109375 C 6.910156 -20.316406 8.828125 -20.921875 11.046875 -20.921875 C 13.648438 -20.921875 15.71875 -20.144531 17.25 -18.59375 C 18.789062 -17.050781 19.785156 -14.878906 20.234375 -12.078125 C 20.347656 -11.203125 20.429688 -10.226562 20.484375 -9.15625 C 20.484375 -8.707031 20.253906 -8.484375 19.796875 -8.484375 L 7.515625 -8.484375 C 7.359375 -8.484375 7.28125 -8.398438 7.28125 -8.234375 C 7.363281 -7.679688 7.457031 -7.269531 7.5625 -7 C 7.820312 -6.175781 8.34375 -5.539062 9.125 -5.09375 C 9.914062 -4.65625 10.875 -4.4375 12 -4.4375 Z M 10.953125 -16.046875 C 10.109375 -16.046875 9.394531 -15.835938 8.8125 -15.421875 C 8.238281 -15.003906 7.847656 -14.425781 7.640625 -13.6875 C 7.503906 -13.175781 7.425781 -12.84375 7.40625 -12.6875 C 7.375 -12.519531 7.4375 -12.4375 7.59375 -12.4375 L 14.40625 -12.4375 C 14.53125 -12.4375 14.59375 -12.488281 14.59375 -12.59375 C 14.59375 -12.894531 14.539062 -13.203125 14.4375 -13.515625 C 14.195312 -14.296875 13.78125 -14.910156 13.1875 -15.359375 C 12.601562 -15.816406 11.859375 -16.046875 10.953125 -16.046875 Z M 10.953125 -16.046875 "/></g></g><g style="fill:#823bf8;fill-opacity:1;"><g transform="translate(126.477631, 48.519997)"><path style="stroke:none" d="M 14.640625 -19.875 C 14.640625 -20.332031 14.863281 -20.5625 15.3125 -20.5625 L 19.59375 -20.5625 C 20.050781 -20.5625 20.28125 -20.332031 20.28125 -19.875 L 20.28125 -1.84375 C 20.28125 1.65625 19.28125 4.148438 17.28125 5.640625 C 15.28125 7.128906 12.707031 7.875 9.5625 7.875 C 8.675781 7.875 7.675781 7.8125 6.5625 7.6875 C 6.15625 7.65625 5.953125 7.410156 5.953125 6.953125 L 6.125 3.234375 C 6.125 3.023438 6.195312 2.859375 6.34375 2.734375 C 6.488281 2.617188 6.664062 2.585938 6.875 2.640625 C 7.863281 2.773438 8.675781 2.84375 9.3125 2.84375 C 11.019531 2.84375 12.332031 2.46875 13.25 1.71875 C 14.175781 0.96875 14.640625 -0.226562 14.640625 -1.875 C 14.640625 -1.957031 14.613281 -2.003906 14.5625 -2.015625 C 14.507812 -2.035156 14.441406 -2.003906 14.359375 -1.921875 C 13.367188 -0.847656 11.898438 -0.3125 9.953125 -0.3125 C 8.222656 -0.3125 6.628906 -0.734375 5.171875 -1.578125 C 3.722656 -2.421875 2.691406 -3.773438 2.078125 -5.640625 C 1.679688 -6.867188 1.484375 -8.457031 1.484375 -10.40625 C 1.484375 -12.476562 1.722656 -14.171875 2.203125 -15.484375 C 2.765625 -17.109375 3.710938 -18.410156 5.046875 -19.390625 C 6.378906 -20.378906 7.925781 -20.875 9.6875 -20.875 C 11.6875 -20.875 13.242188 -20.273438 14.359375 -19.078125 C 14.441406 -18.992188 14.507812 -18.96875 14.5625 -19 C 14.613281 -19.03125 14.640625 -19.097656 14.640625 -19.203125 Z M 14.3125 -7.15625 C 14.53125 -7.957031 14.640625 -9.050781 14.640625 -10.4375 C 14.640625 -11.269531 14.613281 -11.910156 14.5625 -12.359375 C 14.507812 -12.816406 14.414062 -13.242188 14.28125 -13.640625 C 14.039062 -14.359375 13.640625 -14.9375 13.078125 -15.375 C 12.515625 -15.820312 11.820312 -16.046875 11 -16.046875 C 10.195312 -16.046875 9.515625 -15.820312 8.953125 -15.375 C 8.398438 -14.9375 7.988281 -14.359375 7.71875 -13.640625 C 7.34375 -12.835938 7.15625 -11.757812 7.15625 -10.40625 C 7.15625 -8.90625 7.316406 -7.835938 7.640625 -7.203125 C 7.878906 -6.484375 8.296875 -5.898438 8.890625 -5.453125 C 9.492188 -5.015625 10.210938 -4.796875 11.046875 -4.796875 C 11.890625 -4.796875 12.59375 -5.015625 13.15625 -5.453125 C 13.71875 -5.898438 14.101562 -6.46875 14.3125 -7.15625 Z M 14.3125 -7.15625 "/></g></g><g style="fill:#823bf8;fill-opacity:1;"><g transform="translate(148.715423, 48.519997)"><path style="stroke:none" d="M 5.203125 -22.515625 C 4.191406 -22.515625 3.363281 -22.828125 2.71875 -23.453125 C 2.082031 -24.085938 1.765625 -24.894531 1.765625 -25.875 C 1.765625 -26.863281 2.082031 -27.671875 2.71875 -28.296875 C 3.363281 -28.921875 4.191406 -29.234375 5.203125 -29.234375 C 6.242188 -29.234375 7.078125 -28.925781 7.703125 -28.3125 C 8.328125 -27.707031 8.640625 -26.894531 8.640625 -25.875 C 8.640625 -24.863281 8.328125 -24.050781 7.703125 -23.4375 C 7.078125 -22.820312 6.242188 -22.515625 5.203125 -22.515625 Z M 3.078125 0 C 2.628906 0 2.40625 -0.226562 2.40625 -0.6875 L 2.40625 -19.875 C 2.40625 -20.332031 2.628906 -20.5625 3.078125 -20.5625 L 7.359375 -20.5625 C 7.816406 -20.5625 8.046875 -20.332031 8.046875 -19.875 L 8.046875 -0.6875 C 8.046875 -0.226562 7.816406 0 7.359375 0 Z M 3.078125 0 "/></g></g><g style="fill:#823bf8;fill-opacity:1;"><g transform="translate(159.114394, 48.519997)"><path style="stroke:none" d="M 10.28125 0.28125 C 8.488281 0.28125 6.925781 0.03125 5.59375 -0.46875 C 4.257812 -0.976562 3.234375 -1.6875 2.515625 -2.59375 C 1.796875 -3.5 1.4375 -4.53125 1.4375 -5.6875 L 1.4375 -5.875 C 1.4375 -6.332031 1.664062 -6.5625 2.125 -6.5625 L 6.15625 -6.5625 C 6.613281 -6.5625 6.84375 -6.476562 6.84375 -6.3125 L 6.84375 -6.046875 C 6.84375 -5.453125 7.160156 -4.945312 7.796875 -4.53125 C 8.441406 -4.125 9.253906 -3.921875 10.234375 -3.921875 C 11.140625 -3.921875 11.875 -4.09375 12.4375 -4.4375 C 13 -4.78125 13.28125 -5.234375 13.28125 -5.796875 C 13.28125 -6.273438 13.039062 -6.632812 12.5625 -6.875 C 12.082031 -7.113281 11.296875 -7.367188 10.203125 -7.640625 C 8.890625 -7.984375 7.914062 -8.289062 7.28125 -8.5625 C 5.550781 -9.144531 4.175781 -9.863281 3.15625 -10.71875 C 2.144531 -11.570312 1.640625 -12.800781 1.640625 -14.40625 C 1.640625 -16.375 2.410156 -17.9375 3.953125 -19.09375 C 5.503906 -20.257812 7.535156 -20.84375 10.046875 -20.84375 C 11.742188 -20.84375 13.238281 -20.566406 14.53125 -20.015625 C 15.832031 -19.472656 16.832031 -18.707031 17.53125 -17.71875 C 18.238281 -16.726562 18.59375 -15.609375 18.59375 -14.359375 C 18.59375 -14.222656 18.53125 -14.109375 18.40625 -14.015625 C 18.289062 -13.921875 18.128906 -13.875 17.921875 -13.875 L 14 -13.875 C 13.539062 -13.875 13.3125 -13.957031 13.3125 -14.125 L 13.3125 -14.359375 C 13.3125 -14.941406 13.019531 -15.429688 12.4375 -15.828125 C 11.851562 -16.234375 11.066406 -16.4375 10.078125 -16.4375 C 9.203125 -16.4375 8.476562 -16.273438 7.90625 -15.953125 C 7.332031 -15.640625 7.046875 -15.203125 7.046875 -14.640625 C 7.046875 -14.109375 7.316406 -13.707031 7.859375 -13.4375 C 8.410156 -13.175781 9.3125 -12.894531 10.5625 -12.59375 C 11.332031 -12.4375 12.078125 -12.238281 12.796875 -12 C 14.722656 -11.4375 16.226562 -10.710938 17.3125 -9.828125 C 18.40625 -8.953125 18.953125 -7.675781 18.953125 -6 C 18.953125 -4.03125 18.164062 -2.488281 16.59375 -1.375 C 15.019531 -0.269531 12.914062 0.28125 10.28125 0.28125 Z M 10.28125 0.28125 "/></g></g><g style="fill:#823bf8;fill-opacity:1;"><g transform="translate(179.192401, 48.519997)"><path style="stroke:none" d="M 13.875 -16.71875 C 13.875 -16.269531 13.648438 -16.046875 13.203125 -16.046875 L 9.59375 -16.046875 C 9.4375 -16.046875 9.359375 -15.960938 9.359375 -15.796875 L 9.359375 -7.515625 C 9.359375 -6.640625 9.535156 -5.992188 9.890625 -5.578125 C 10.253906 -5.160156 10.835938 -4.953125 11.640625 -4.953125 L 12.765625 -4.953125 C 13.210938 -4.953125 13.4375 -4.726562 13.4375 -4.28125 L 13.4375 -0.84375 C 13.4375 -0.414062 13.210938 -0.175781 12.765625 -0.125 C 11.742188 -0.0703125 11.007812 -0.046875 10.5625 -0.046875 C 8.34375 -0.046875 6.6875 -0.414062 5.59375 -1.15625 C 4.5 -1.90625 3.941406 -3.289062 3.921875 -5.3125 L 3.921875 -15.796875 C 3.921875 -15.960938 3.84375 -16.046875 3.6875 -16.046875 L 1.640625 -16.046875 C 1.179688 -16.046875 0.953125 -16.269531 0.953125 -16.71875 L 0.953125 -19.875 C 0.953125 -20.332031 1.179688 -20.5625 1.640625 -20.5625 L 3.6875 -20.5625 C 3.84375 -20.5625 3.921875 -20.640625 3.921875 -20.796875 L 3.921875 -25.3125 C 3.921875 -25.769531 4.144531 -26 4.59375 -26 L 8.6875 -26 C 9.132812 -26 9.359375 -25.769531 9.359375 -25.3125 L 9.359375 -20.796875 C 9.359375 -20.640625 9.4375 -20.5625 9.59375 -20.5625 L 13.203125 -20.5625 C 13.648438 -20.5625 13.875 -20.332031 13.875 -19.875 Z M 13.875 -16.71875 "/></g></g><g style="fill:#823bf8;fill-opacity:1;"><g transform="translate(194.390886, 48.519997)"><path style="stroke:none" d="M 12.3125 -20.84375 C 13.164062 -20.84375 13.875 -20.679688 14.4375 -20.359375 C 14.757812 -20.203125 14.878906 -19.921875 14.796875 -19.515625 L 14.046875 -15.3125 C 14.015625 -15.070312 13.9375 -14.925781 13.8125 -14.875 C 13.695312 -14.820312 13.503906 -14.820312 13.234375 -14.875 C 12.804688 -14.988281 12.421875 -15.046875 12.078125 -15.046875 C 11.890625 -15.046875 11.582031 -15.015625 11.15625 -14.953125 C 10.195312 -14.878906 9.382812 -14.523438 8.71875 -13.890625 C 8.050781 -13.265625 7.71875 -12.4375 7.71875 -11.40625 L 7.71875 -0.6875 C 7.71875 -0.226562 7.492188 0 7.046875 0 L 2.765625 0 C 2.304688 0 2.078125 -0.226562 2.078125 -0.6875 L 2.078125 -19.875 C 2.078125 -20.332031 2.304688 -20.5625 2.765625 -20.5625 L 7.046875 -20.5625 C 7.492188 -20.5625 7.71875 -20.332031 7.71875 -19.875 L 7.71875 -18.640625 C 7.71875 -18.535156 7.742188 -18.46875 7.796875 -18.4375 C 7.847656 -18.414062 7.914062 -18.441406 8 -18.515625 C 9.0625 -20.066406 10.5 -20.84375 12.3125 -20.84375 Z M 12.3125 -20.84375 "/></g></g><g style="fill:#823bf8;fill-opacity:1;"><g transform="translate(210.149331, 48.519997)"><path style="stroke:none" d="M 1.953125 7.953125 C 1.773438 7.953125 1.6875 7.726562 1.6875 7.28125 L 1.6875 4 C 1.6875 3.539062 1.765625 3.3125 1.921875 3.3125 L 2.15625 3.3125 C 3.8125 3.3125 4.992188 3.101562 5.703125 2.6875 C 6.410156 2.28125 6.921875 1.4375 7.234375 0.15625 C 7.285156 0.0195312 7.285156 -0.0820312 7.234375 -0.15625 L 0.796875 -19.796875 C 0.773438 -19.847656 0.765625 -19.929688 0.765625 -20.046875 C 0.765625 -20.203125 0.816406 -20.328125 0.921875 -20.421875 C 1.023438 -20.515625 1.171875 -20.5625 1.359375 -20.5625 L 5.953125 -20.5625 C 6.328125 -20.5625 6.582031 -20.375 6.71875 -20 L 10 -8.078125 C 10.03125 -7.972656 10.082031 -7.921875 10.15625 -7.921875 C 10.238281 -7.921875 10.289062 -7.972656 10.3125 -8.078125 L 13.4375 -19.953125 C 13.519531 -20.359375 13.773438 -20.5625 14.203125 -20.5625 L 18.796875 -20.5625 C 19.035156 -20.5625 19.207031 -20.488281 19.3125 -20.34375 C 19.425781 -20.195312 19.441406 -20.015625 19.359375 -19.796875 L 12.515625 0.765625 C 11.847656 2.710938 11.164062 4.171875 10.46875 5.140625 C 9.78125 6.109375 8.8125 6.816406 7.5625 7.265625 C 6.3125 7.722656 4.535156 7.953125 2.234375 7.953125 Z M 1.953125 7.953125 "/></g></g></g></svg>